# xmcd CD database file
#
# Track frame offsets:
#	150
#	17561
#	26447
#	50057
#	61461
#	75668
#	91420
#	102168
#	115051
#	140119
#	161684
#	184405
#
# Disc length: 2784 seconds
#
# Revision: 0
# Processed by: cddbd v1.5.1PL0 Copyright (c) Steve Scherf et al.
# Submitted via: CDex 1.51
#
DISCID=9f0ade0c
DTITLE=鶴来屋Jukebox - starting over -again-
DYEAR=1900
DGENRE=未分類 (日本)
TTITLE0=柏木楓 -Type Ats ver- (痕)
TTITLE1=ホワイトアルバム ピアノ -again MIX- (White Album)
TTITLE2=AZUSA meets happy hard core -hard mix- (痕)
TTITLE3=森川 由綺 -again MIX- (White Album)
TTITLE4=雛山理緒 -again MIX- (To Heart)
TTITLE5=ためいき (痕)
TTITLE6=こみっくパ〜ティ〜 (こみっくパーティー)
TTITLE7=魔女の秘術 -あんにゅいMIX- (To Heart)
TTITLE8=サザン・ウインド (To Heart)
TTITLE9=ドタバタでQ憩 -M浪、水ぶっかけMIX- (こみっくパーティー)
TTITLE10=Nights Wind (痕)
TTITLE11=ボーナストラック
EXTD=
EXTT0=
EXTT1=
EXTT2=
EXTT3=
EXTT4=
EXTT5=
EXTT6=
EXTT7=
EXTT8=
EXTT9=
EXTT10=
EXTT11=
PLAYORDER=
